<svg width="221" height="287" viewBox="0 0 221 287" fill="none" xmlns="http://www.w3.org/2000/svg">
<path fill-rule="evenodd" clip-rule="evenodd" d="M189.939 215.34C209.168 195.457 221 168.375 221 138.53C221 77.5029 171.527 28.0303 110.5 28.0303C49.4727 28.0303 0 77.5029 0 138.53C0 169.673 12.8838 197.808 33.6121 217.893C50.5999 199.301 79.8125 187.03 113 187.03C144.644 187.03 172.674 198.186 189.939 215.34Z" fill="#414143"/>
<path fill-rule="evenodd" clip-rule="evenodd" d="M42.9723 102.161C38.6294 104.882 35.9766 109.633 35.9379 114.758L35.5439 166.963H36.0106C36.0106 166.963 44.3538 168.681 49.6527 169.983C53.6332 170.961 56.8058 172.116 59.8561 173.226C64.1455 174.786 68.1931 176.259 73.9053 177.03C87.4329 178.857 95.6663 178.343 108.768 174.513C122.406 170.527 129.502 165.767 140.6 156.896C151.163 148.452 156.191 142.376 163.842 131.225C169.968 122.297 176.387 107.684 178.376 103.014C177.957 102.675 177.517 102.356 177.058 102.061L119.011 64.6882C114.122 61.5403 107.854 61.5019 102.926 64.5899L42.9723 102.161Z" fill="#FEB24D"/>
<path fill-rule="evenodd" clip-rule="evenodd" d="M183.938 114.786C183.972 110.192 181.902 105.868 178.376 103.014C176.387 107.684 169.967 122.297 163.842 131.225C156.191 142.376 151.163 148.452 140.6 156.896C129.502 165.767 122.406 170.527 108.768 174.513C95.6662 178.343 87.4327 178.857 73.9052 177.03C68.193 176.259 64.1454 174.786 59.8559 173.225C56.8056 172.116 53.633 170.961 49.6525 169.983C44.3536 168.681 36.0104 166.963 36.0104 166.963H35.5438L35.1719 216.239C52.3543 198.576 80.8071 187.03 113 187.03C140.821 187.03 165.849 195.654 183.224 209.395L183.938 114.786Z" fill="#FFA32E"/>
<path d="M110 286.03L54.5 238.03H166L110 286.03Z" fill="#47CACD"/>
<path d="M135 241.03V238.03H165.5L110 286.03L92 270.53L95.5 267.03L99 266.03L105 265.03L112 262.03L116.5 259.53L122 256.03L132 247.03L134.5 243.53L135 241.03Z" fill="#22AFAF"/>
<circle cx="110" cy="81.0303" r="10" fill="#424045"/>
<path d="M110 84.5303L102 73.5303L104.5 71.0303L110 78.5303L115 72.0303L118 74.0303L110 84.5303Z" fill="#FEB24D"/>
<path d="M94.9998 58.0302C94.9998 58.0302 90.2998 50.3176 87.9998 45.0302C86.4227 41.4046 85.3888 39.3828 84.4999 35.5303C83.8356 32.6511 83.5594 30.9845 83.5001 28.0303C83.449 25.4849 83.8155 22.9824 84.5 20.5303C85.2751 17.7534 85.8924 16.4235 87.5 14.0303C89.2008 11.4984 90.1908 11.023 92.5 9.03028C94.7565 7.08301 95.8788 6.44916 98.5 5.03028C100 4.21819 101.332 3.5493 103 3.03016C105.245 2.33125 106.65 2.09529 109 2.0303C112.519 1.93301 114.627 2.02151 118 3.03016C119.842 3.58121 121.318 4.59769 123 5.53028C124.682 6.46287 127 7.95235 128.5 9.53028C130.815 11.9651 132.604 13.9747 134 17.0303C135.338 19.9593 136.1 22.3347 136.5 25.5302C136.912 28.824 137.032 30.7536 136.5 34.0302C135.866 37.9328 134.696 39.9588 133 43.5302C131.95 45.7402 131.173 47.3831 130 49.5303C126.691 55.5889 121 66.0303 121 66.0303" stroke="#FEB24D" stroke-width="3" stroke-linecap="round"/>
</svg>
