<svg width="995" height="286" viewBox="0 0 995 286" fill="none" xmlns="http://www.w3.org/2000/svg">
<path d="M254 205L262.5 184C262.5 184 279.794 192.092 292 191.5C299.383 191.142 306.745 192.659 311.5 187C313.694 184.389 314.99 182.41 315 179C315.008 176.097 313.93 174.526 312.5 172C308.11 164.242 300.443 165.046 292.5 161C283.86 156.599 277.471 156.681 270 150.5C265.74 146.975 263.212 144.819 260.5 140C256.874 133.559 256.13 128.882 256.5 121.5C256.893 113.668 258.278 108.761 263 102.5C266.252 98.1879 268.874 96.2866 273.5 93.4999C277.321 91.1979 279.715 90.2404 284 88.9999C290.963 86.9843 295.252 87.5127 302.5 87.4999L302.775 87.4994C308.672 87.4887 312.114 87.4824 318 88.4999L318.151 88.5259C321.418 89.0906 323.32 89.4192 326.5 90.4999C331.047 92.0451 337.5 95.9999 337.5 95.9999L329 117C329 117 322.536 113.299 318 112C312.714 110.486 309.997 110.117 304.5 110C300.201 109.908 297.002 109.426 293 111C290.379 112.03 288.66 112.725 287 115C285.435 117.146 285.142 118.848 285 121.5C284.873 123.872 284.688 125.52 286 127.5C287.079 129.127 288.387 129.9 290 131C295.702 134.887 299.685 135.218 306 138C312.57 140.894 316.751 141.464 323 145C326.676 147.08 328.852 148.183 332 151C336.045 154.62 338.23 157.068 340.5 162C343.387 168.271 343.284 172.602 343 179.5C342.779 184.857 342.453 188.007 340.5 193C339.291 196.091 338.489 197.842 336.5 200.5C333.083 205.065 330.002 206.761 325 209.5C315.089 214.928 307.795 214.169 296.5 214.5C288.476 214.735 283.906 214.387 276 213C272.454 212.378 270.437 212.072 267 211C261.662 209.335 254 205 254 205Z" fill="#FEB24D"/>
<path fill-rule="evenodd" clip-rule="evenodd" d="M458.5 142L455 121.5C455 121.5 465.854 118.388 473 117.5C473.13 117.484 473.26 117.467 473.388 117.451C482.456 116.323 487.948 115.64 497 117.5C497.375 117.577 497.741 117.652 498.1 117.725C503.758 118.878 507.482 119.637 512.5 123C517.204 126.152 519.709 128.573 522.5 133.5C524.539 137.1 526 143.5 526 143.5V210C526 210 504.755 214.24 491 214C489.011 213.965 487.171 213.973 485.427 213.98C478.214 214.011 472.651 214.035 465 211C464.551 210.822 464.123 210.654 463.71 210.493C460.54 209.255 458.334 208.394 455.5 206C452.308 203.303 450.814 201.264 449 197.5C446.589 192.497 446.361 189.052 446.5 183.5C446.646 177.676 446.956 173.967 450 169C452.308 165.233 454.344 163.482 458 161C461.035 158.939 463.002 158.105 466.5 157C469.219 156.14 470.884 155.917 473.606 155.553C473.735 155.535 473.866 155.518 474 155.5C476.923 155.107 478.902 155.08 481.375 155.047C482.181 155.036 483.039 155.025 484 155C488.294 154.887 490.735 154.988 495 155.5C497.168 155.76 500.5 156 500.5 156C500.5 156 501.06 151.375 500.5 148.5C499.94 145.625 498.968 144.288 497.5 143C496.034 141.714 494.816 141.226 493.007 140.503L493 140.5C490.5 139.5 487.971 138.807 484 138.5C479.141 138.124 475.371 138.691 470.642 139.403C470.43 139.435 470.216 139.467 470 139.5C465.455 140.182 458.5 142 458.5 142ZM501 173.5V193C501 193 497.059 193.778 494.5 194C494.234 194.023 493.965 194.047 493.695 194.071C490.21 194.383 486.364 194.727 482 193.5C481.735 193.426 481.481 193.356 481.235 193.288C479.214 192.731 477.783 192.337 476 191C473.414 189.061 472.601 186.73 472.5 183.5C472.417 180.845 472.866 179.094 474.5 177C475.604 175.585 476.613 175.033 478.097 174.221C478.228 174.149 478.362 174.076 478.5 174C482.031 172.054 484.746 172.037 488.479 172.014C488.967 172.011 489.473 172.007 490 172C494.335 171.937 501 173.5 501 173.5Z" fill="#FEB24D"/>
<path fill-rule="evenodd" clip-rule="evenodd" d="M631.5 174.5H691.5C691.5 174.5 692.114 160.948 690.5 152.5C690.45 152.237 690.401 151.98 690.353 151.728C689.493 147.21 688.956 144.385 687 140C684.926 135.35 683.507 132.692 680 129C676.53 125.346 673.978 123.81 669.5 121.5C662.345 117.809 657 116.5 649.5 116.5C642 116.5 636.5 117.77 631 120.5C624.878 123.539 619.81 126.696 615.5 132C611.645 136.744 610.023 140.232 608 146C605.375 153.482 605.211 158.074 605 166C604.807 173.264 604.691 177.61 607 184.5C608.832 189.967 610.428 192.974 614 197.5C616.995 201.295 619.071 203.183 623 206C627.117 208.952 629.709 210.356 634.5 212C640.478 214.051 644.659 214.029 650.244 214C651.423 213.994 652.665 213.987 654 214C662.432 214.08 667.246 213.728 675.5 212C679.858 211.088 686.5 209 686.5 209L683 187.5C683 187.5 676.974 189.589 673 190.5C666.106 192.081 664 192.5 657 192.5C651.175 192.5 645.221 191 642.5 189.5C639.215 187.689 638 187 635 183.5C632.709 180.827 631.5 174.5 631.5 174.5ZM631.5 156.5H666.5C666.5 156.5 666.495 153.399 666 151.5C665.339 148.965 664.523 147.632 663 145.5C661.395 143.253 660.333 141.977 658 140.5C655.076 138.649 652.959 138.091 649.5 138C646.514 137.922 644.672 138.164 642 139.5C640.009 140.496 639.068 141.42 637.5 143C635.629 144.885 634.668 146.115 633.5 148.5C632.083 151.392 631.5 156.5 631.5 156.5Z" fill="#FEB24D"/>
<path d="M381.5 141.243V212H368.75H356V79.5L381.5 75V119C381.5 119 387.562 117.798 391.5 117.5C397.344 117.057 400.713 117.073 406.5 118C410.475 118.637 412.827 118.854 416.5 120.5C419.22 121.719 420.669 122.642 423 124.5C425.159 126.221 426.305 127.32 428 129.5C429.933 131.985 430.695 133.635 432 136.5C433.203 139.142 433.745 140.697 434.5 143.5C435.427 146.94 436 152.5 436 152.5V212H410L409.5 152.5C409.5 152.5 409.044 150.313 408.5 149C407.898 147.545 407.4 146.792 406.5 145.5C405.628 144.249 405.11 143.546 404 142.5C403.424 141.957 401.286 140.644 399 140C396.881 139.403 394.63 139.453 393.5 139.5C391.151 139.598 389.827 139.665 387.5 140C385.132 140.341 381.5 141.243 381.5 141.243Z" fill="#FEB24D"/>
<path d="M569 212H543V124.5C543 124.5 551.72 121.321 557.5 120C566.308 117.987 571.467 117.31 580.5 117.5C589.583 117.691 604.5 120 604 121C603.5 122 599 142.5 599 142.5C599 142.5 592.186 140.496 588 140C583.734 139.494 581.775 139.58 577.5 140C574.145 140.33 569 141.5 569 141.5V212Z" fill="#FEB24D"/>
<path d="M693 75H717V104.5L713.5 127H696L693 104.5V75Z" fill="#22AFAF"/>
<path d="M734 87H761V209H734V87Z" fill="#22AFAF"/>
<path d="M734 209V186H816V209H734Z" fill="#22AFAF"/>
<path fill-rule="evenodd" clip-rule="evenodd" d="M869 114.5C869 114.5 873.238 114.775 878 116C883.339 117.373 886.387 118.482 891 121.5C894.704 123.924 896.598 125.657 899.5 129C902.269 132.19 903.604 134.225 905.5 138C907.717 142.414 908.527 145.157 909.5 150C910.313 154.043 910.378 156.469 910.485 160.442C910.49 160.625 910.495 160.811 910.5 161C910.628 165.689 910.64 168.353 910 173L909.962 173.273L909.962 173.273C909.578 176.065 909.349 177.733 908.5 180.5C907.499 183.76 906.964 185.42 905.5 188.5C904.636 190.318 903.847 191.493 902.777 193.087C902.687 193.221 902.594 193.359 902.5 193.5C901.436 195.088 900.551 195.964 899.368 197.134C899.097 197.403 898.809 197.688 898.5 198C895.967 200.559 894.456 201.945 891.5 204C888.915 205.797 887.374 206.715 884.5 208C882.413 208.933 881.212 209.424 879 210C878.527 210.123 878.086 210.241 877.666 210.354C875.546 210.923 873.961 211.349 871.5 211.5C869.857 211.601 868.679 211.571 867.361 211.537C866.647 211.519 865.892 211.5 865 211.5C864.24 211.5 863.561 211.508 862.933 211.515C860.333 211.543 858.594 211.563 855.5 211C852.462 210.448 850.34 209.71 847.5 208.5C844.446 207.199 842.747 206.363 840 204.5C837.248 202.633 835.833 201.369 833.5 199C831.359 196.827 830.176 195.549 828.5 193C827.585 191.609 827.103 190.661 826.441 189.361C826.303 189.092 826.158 188.807 826 188.5C825.883 188.272 825.77 188.054 825.66 187.843C824.579 185.75 823.873 184.385 823 182C822.299 180.085 821.992 178.978 821.5 177C821.019 175.068 820.788 173.97 820.5 172C820.122 169.413 820.09 168.098 820.037 165.912C820.026 165.481 820.015 165.016 820 164.5C819.986 164.008 819.969 163.538 819.954 163.082C819.882 161.009 819.82 159.234 820 157L820.01 156.877C820.322 152.995 820.458 151.301 821.5 147.5C822.316 144.522 823.208 142.304 824.5 139.5C825.635 137.036 826.456 135.73 828 133.5C830.05 130.54 831.396 128.986 834 126.5C836.514 124.099 838.077 122.882 841 121C843.424 119.439 844.859 118.657 847.5 117.5C849.593 116.583 850.788 116.077 853 115.5C855.672 114.803 857.244 114.671 860 114.5C861.764 114.39 866.383 114.461 868.241 114.49C868.64 114.496 868.912 114.5 869 114.5ZM865.5 189C878 189 884 177.359 884 163C884 148.641 878.5 137 865.5 137C851.5 137 846.5 148.641 846.5 163C846.5 177.359 853 189 865.5 189Z" fill="#22AFAF"/>
<path d="M993 119.5L988 139.5C988 139.5 984.053 138.521 981.5 138C979.361 137.564 978.169 137.251 976 137C972.121 136.55 966 137 966 137C966 137 963.208 137.433 961.5 138C960.089 138.469 959.269 138.725 958 139.5C956.698 140.294 956.124 140.969 955 142C953.983 142.933 953.401 143.454 952.5 144.5C951.404 145.773 950.789 146.517 950 148C949.216 149.473 949.023 150.416 948.5 152C947.801 154.114 947 157.5 947 157.5V169C947 169 947.696 172.723 948.5 175C948.85 175.992 949.074 176.539 949.5 177.5C950.031 178.697 950.293 179.397 951 180.5C951.823 181.784 952.422 182.422 953.5 183.5C954.578 184.578 955.23 185.155 956.5 186C957.954 186.967 958.855 187.413 960.5 188C962.195 188.605 963.223 188.71 965 189C970.011 189.817 972.98 189.759 978 189C980.576 188.611 981.962 188.086 984.5 187.5L991 186L995 206.5C995 206.5 991.985 207.805 990 208.5C987.317 209.44 985.8 210.005 983 210.5C981.259 210.808 978.5 211 978.5 211H959C959 211 953.739 210.435 950.5 209.5C947.469 208.625 945.827 207.9 943 206.5C940.569 205.296 939.185 204.608 937 203C935.106 201.606 934.15 200.676 932.5 199C931.044 197.521 930.229 196.672 929 195C927.909 193.516 927.408 192.603 926.5 191C925.424 189.1 924.799 188.032 924 186C923.254 184.103 923.035 182.967 922.5 181L922.495 180.981C922.076 179.439 921.839 178.567 921.5 177C920.998 174.678 920.5 171 920.5 171V157C920.5 157 920.757 152.06 921.5 149C922.185 146.179 922.821 144.652 924 142C924.71 140.404 925.148 139.524 926 138C926.899 136.392 927.474 135.53 928.5 134C929.436 132.605 929.964 131.822 931 130.5C932.45 128.649 933.299 127.623 935 126C936.809 124.274 937.917 123.383 940 122C942.038 120.647 943.31 120.091 945.5 119C947.612 117.948 948.784 117.309 951 116.5C954.025 115.396 955.823 115.026 959 114.5C960.553 114.243 963 114 963 114H972C972 114 977.539 114.276 981 115C983.179 115.456 984.401 115.758 986.5 116.5C989.136 117.432 993 119.5 993 119.5Z" fill="#22AFAF"/>
<path fill-rule="evenodd" clip-rule="evenodd" d="M189.939 215.31C209.168 195.427 221 168.345 221 138.5C221 77.4727 171.527 28 110.5 28C49.4727 28 0 77.4727 0 138.5C0 169.643 12.8838 197.777 33.6121 217.863C50.5999 199.271 79.8125 187 113 187C144.644 187 172.674 198.156 189.939 215.31Z" fill="#414143"/>
<path fill-rule="evenodd" clip-rule="evenodd" d="M42.9723 102.131C38.6294 104.852 35.9766 109.603 35.9379 114.728L35.5439 166.933H36.0106C36.0106 166.933 44.3538 168.651 49.6527 169.953C53.6332 170.931 56.8058 172.085 59.8561 173.195C64.1455 174.756 68.1931 176.229 73.9053 177C87.4329 178.827 95.6663 178.313 108.768 174.483C122.406 170.497 129.502 165.737 140.6 156.866C151.163 148.422 156.191 142.346 163.842 131.195C169.968 122.267 176.387 107.653 178.376 102.984C177.957 102.645 177.517 102.326 177.058 102.031L119.011 64.658C114.122 61.51 107.854 61.4716 102.926 64.5596L42.9723 102.131Z" fill="#FEB24D"/>
<path fill-rule="evenodd" clip-rule="evenodd" d="M183.938 114.756C183.972 110.161 181.902 105.837 178.376 102.984C176.387 107.653 169.967 122.267 163.842 131.194C156.191 142.346 151.163 148.422 140.6 156.866C129.502 165.737 122.406 170.497 108.768 174.483C95.6662 178.313 87.4327 178.827 73.9051 177C68.1929 176.228 64.1453 174.756 59.8559 173.195C56.8056 172.085 53.633 170.931 49.6525 169.953C44.3536 168.651 36.0104 166.933 36.0104 166.933H35.5438L35.1719 216.209C52.3542 198.546 80.8071 187 113 187C140.821 187 165.849 195.623 183.224 209.365L183.938 114.756Z" fill="#FFA32E"/>
<path d="M110 286L54.5 238H166L110 286Z" fill="#47CACD"/>
<path d="M135 241V238H165.5L110 286L92 270.5L95.5 267L99 266L105 265L112 262L116.5 259.5L122 256L132 247L134.5 243.5L135 241Z" fill="#22AFAF"/>
<circle cx="110" cy="81" r="10" fill="#424045"/>
<path d="M110 84.5L102 73.5L104.5 71L110 78.5L115 72L118 74L110 84.5Z" fill="#FEB24D"/>
<path d="M94.9998 57.9999C94.9998 57.9999 90.2998 50.2873 87.9998 44.9999C86.4227 41.3743 85.3888 39.3525 84.4999 35.5C83.8356 32.6208 83.5594 30.9543 83.5001 28C83.449 25.4546 83.8155 22.9522 84.5 20.5C85.2751 17.7231 85.8924 16.3932 87.5 14C89.2008 11.4681 90.1908 10.9927 92.5 9C94.7565 7.05274 95.8788 6.41889 98.5 5C100 4.18792 101.332 3.51903 103 2.99989C105.245 2.30098 106.65 2.06501 109 2.00003C112.519 1.90273 114.627 1.99123 118 2.99989C119.842 3.55093 121.318 4.56742 123 5.5C124.682 6.43259 127 7.92207 128.5 9.5C130.815 11.9348 132.604 13.9445 134 17C135.338 19.9291 136.1 22.3044 136.5 25.4999C136.912 28.7937 137.032 30.7233 136.5 33.9999C135.866 37.9026 134.696 39.9285 133 43.4999C131.95 45.7099 131.173 47.3528 130 49.5C126.691 55.5587 121 66 121 66" stroke="#FEB24D" stroke-width="3" stroke-linecap="round"/>
</svg>
